<svg width="24" height="25" viewBox="0 0 24 25" fill="none" xmlns="http://www.w3.org/2000/svg">
<path d="M11.7443 0.5C9.42148 0.5 7.15085 1.20379 5.21951 2.52236C3.28817 3.84094 1.78288 5.71509 0.893985 7.9078C0.00508862 10.1005 -0.227487 12.5133 0.225668 14.8411C0.678824 17.1689 1.79736 19.3071 3.43982 20.9853C5.08229 22.6635 7.17492 23.8064 9.45309 24.2694C11.7313 24.7324 14.0926 24.4948 16.2386 23.5866C18.3846 22.6783 20.2188 21.1402 21.5093 19.1668C22.7998 17.1935 23.4886 14.8734 23.4886 12.5C23.4886 9.3174 22.2512 6.26515 20.0487 4.01472C17.8463 1.76428 14.8591 0.5 11.7443 0.5ZM18.4189 9.605L11.0494 18.145C10.9305 18.2819 10.7863 18.3935 10.625 18.4733C10.4638 18.5531 10.2887 18.5995 10.1099 18.61H10.0218C9.68798 18.6121 9.36533 18.4874 9.1165 18.26L5.17238 14.685C4.90113 14.439 4.73664 14.093 4.71507 13.7231C4.6935 13.3532 4.81664 12.9897 5.05738 12.7125C5.29813 12.4353 5.63677 12.2673 5.9988 12.2452C6.36083 12.2232 6.7166 12.349 6.98785 12.595L9.92392 15.24L16.3882 7.74C16.6283 7.46219 16.9665 7.2932 17.3286 7.27023C17.6906 7.24726 18.0467 7.37217 18.3186 7.6175C18.5905 7.86282 18.7559 8.20846 18.7784 8.57838C18.8009 8.9483 18.6786 9.31219 18.4385 9.59L18.4189 9.605Z" fill="#9B9A78"/>
</svg>
